<svg width="121" height="32" viewBox="0 0 121 32" fill="none" xmlns="http://www.w3.org/2000/svg">
<path fill-rule="evenodd" clip-rule="evenodd" d="M19.07 31.2166C26.131 29.6697 31.4182 23.3502 31.4182 15.7894C31.4182 7.06916 24.385 0 15.7091 0C7.0332 0 0 7.06916 0 15.7894C0 22.8776 4.64699 28.875 11.0459 30.8715V11.8533C11.0459 11.1892 11.5828 10.6508 12.2469 10.6508L26.0718 10.6508C26.7826 10.6508 27.1396 11.5072 26.6415 12.0142L15.6569 23.1969C14.4264 24.4495 13.9697 26.2697 14.4631 27.9548C15.0715 30.0329 17.0229 31.3289 19.07 31.2166Z" fill="url(#paint0_linear_1_1868)"/>
<mask id="mask0_1_1868" style="mask-type:alpha" maskUnits="userSpaceOnUse" x="0" y="0" width="32" height="32">
<path fill-rule="evenodd" clip-rule="evenodd" d="M19.07 31.2166C26.131 29.6697 31.4182 23.3502 31.4182 15.7894C31.4182 7.06916 24.385 0 15.7091 0C7.0332 0 0 7.06916 0 15.7894C0 22.8776 4.64699 28.875 11.0459 30.8715V11.8533C11.0459 11.1892 11.5828 10.6508 12.2469 10.6508L26.0718 10.6508C26.7826 10.6508 27.1396 11.5072 26.6415 12.0142L15.6569 23.1969C14.4264 24.4495 13.9697 26.2697 14.4631 27.9548C15.0715 30.0329 17.0229 31.3289 19.07 31.2166Z" fill="url(#paint1_linear_1_1868)"/>
</mask>
<g mask="url(#mask0_1_1868)">
<path fill-rule="evenodd" clip-rule="evenodd" d="M18.3281 0.197556L18.4989 0.270967H18.3281C18.2342 0.270967 18.0805 0.237979 17.9865 0.197556L17.8157 0.124146H17.9865C18.0805 0.124146 18.2342 0.157133 18.3281 0.197556ZM17.0045 0.283017C17.0045 0.39104 16.83 0.39104 16.6629 0.283017C16.563 0.218494 16.5866 0.199864 16.7696 0.198838C16.8987 0.198155 17.0045 0.236014 17.0045 0.283017ZM15.1257 0.453939C15.1257 0.500943 15.085 0.5394 15.0353 0.5394C14.9856 0.5394 14.9686 0.500943 14.9976 0.453939C15.0267 0.406936 15.0673 0.368478 15.0881 0.368478C15.1088 0.368478 15.1257 0.406936 15.1257 0.453939ZM19.8226 0.63674C20.0421 0.738951 20.1579 0.833898 20.0927 0.858084C19.959 0.907737 19.3102 0.632723 19.3102 0.52641C19.3102 0.419669 19.3965 0.438214 19.8226 0.63674ZM18.3641 0.562047C18.4778 0.620075 18.5886 0.721517 18.6104 0.787408C18.6412 0.880902 18.5882 0.894832 18.369 0.850991C18.0482 0.786724 17.8385 0.640928 17.9071 0.529743C17.9711 0.426164 18.1183 0.436505 18.3641 0.562047ZM20.6766 0.710322C20.747 0.755873 20.7662 0.793134 20.7193 0.793134C20.6723 0.793134 20.5762 0.755873 20.5058 0.710322C20.4353 0.664771 20.4161 0.62751 20.4631 0.62751C20.51 0.62751 20.6061 0.664771 20.6766 0.710322ZM16.5205 0.767324C16.6659 0.912693 16.5674 1.06234 16.3434 1.03644C16.0358 1.00097 15.9598 0.710322 16.2581 0.710322C16.3712 0.710322 16.4893 0.73596 16.5205 0.767324ZM21.317 1.13019C21.5049 1.21805 21.7355 1.3506 21.8294 1.42469L22.0002 1.55946L21.8294 1.56143C21.6668 1.56322 20.762 1.09387 20.762 1.00773C20.762 0.925342 20.9835 0.974225 21.317 1.13019ZM20.0469 1.13062C20.4444 1.31128 20.5665 1.45289 20.4365 1.58296C20.258 1.76158 19.3184 1.24633 19.446 1.03977C19.513 0.931153 19.6554 0.952689 20.0469 1.13062ZM18.1139 1.24787C18.3647 1.37487 18.4402 1.62911 18.2489 1.70261C17.9115 1.83217 17.3392 1.47998 17.5244 1.25676C17.6462 1.10977 17.8356 1.10695 18.1139 1.24787ZM14.2184 1.19813C14.2452 1.22497 14.2466 1.28 14.2217 1.32043C14.1617 1.41751 13.9302 1.41537 13.9302 1.31769C13.9302 1.22334 14.1518 1.13147 14.2184 1.19813ZM22.2137 1.35128C22.3311 1.41845 22.3866 1.47477 22.3368 1.47648C22.2871 1.4781 22.1718 1.42298 22.0806 1.35401C21.8697 1.19437 21.9371 1.19301 22.2137 1.35128ZM22.6973 1.62228C22.6721 1.6474 22.8872 1.82747 23.1753 2.0224C23.4633 2.21734 23.7148 2.42757 23.7341 2.4897C23.7811 2.64097 23.0293 2.25229 22.6463 1.92737C22.3601 1.68449 22.3578 1.67731 22.548 1.62749C22.6553 1.59946 22.7224 1.59706 22.6973 1.62228ZM15.7875 1.61971C16.0894 1.74679 15.7588 2.1265 15.4202 2.04146C15.2538 1.99967 15.2066 1.93993 15.2269 1.79696C15.2538 1.60775 15.5425 1.51647 15.7875 1.61971ZM21.7867 1.81696C22.2045 2.03915 22.5264 2.39715 22.4117 2.51201C22.2224 2.70139 21.1889 2.06795 21.1889 1.7626C21.1889 1.60655 21.4329 1.62877 21.7867 1.81696ZM19.9766 1.95711C20.3298 2.13333 20.4204 2.22101 20.4204 2.38715C20.4204 2.50192 20.3634 2.61772 20.2937 2.64447C20.0746 2.72857 19.4619 2.47364 19.2751 2.22059C19.0991 1.98207 19.0989 1.97728 19.2625 1.85738C19.476 1.70081 19.4574 1.69825 19.9766 1.95711ZM24.0711 2.34391C24.3622 2.53047 24.4564 2.65575 24.1992 2.51423C24.0033 2.40647 23.6963 2.16897 23.7509 2.16735C23.7744 2.16658 23.9185 2.24606 24.0711 2.34391ZM17.5343 2.26118C17.9763 2.42296 17.8901 2.93231 17.4207 2.93231C16.9286 2.93231 16.5748 2.50141 16.8823 2.27648C17.0606 2.14598 17.21 2.14248 17.5343 2.26118ZM13.0548 2.35544C13.001 2.51714 12.7346 2.54013 12.7346 2.38305C12.7346 2.30383 12.8076 2.24862 12.9125 2.24862C13.0168 2.24862 13.0757 2.2928 13.0548 2.35544ZM23.7141 2.78702C24.2215 3.1369 24.5048 3.49396 24.3767 3.62206C24.241 3.75794 23.7606 3.52882 23.3385 3.1269C22.7016 2.52064 22.9725 2.27554 23.7141 2.78702ZM24.6592 2.92521C25.1795 3.27304 25.637 3.70145 25.4884 3.70145C25.3453 3.70145 24.666 3.21886 24.3533 2.89513C24.1913 2.72754 24.0814 2.59046 24.1087 2.59046C24.136 2.59046 24.3837 2.74113 24.6592 2.92521ZM21.8531 2.73045C22.1654 2.88667 22.5553 3.30919 22.5553 3.49139C22.5553 3.86221 21.8076 3.74632 21.3463 3.30406C20.8393 2.81796 21.2037 2.40552 21.8531 2.73045ZM14.8573 2.83744C15.0276 2.94547 14.8965 3.26415 14.6571 3.32423C14.2181 3.43447 13.9462 3.1792 14.1898 2.88547C14.303 2.74891 14.6754 2.72216 14.8573 2.83744ZM19.3955 2.94282C19.9282 3.15544 20.1748 3.68368 19.8282 3.86939C19.5672 4.00911 19.2732 3.97365 18.9684 3.76555C18.5865 3.50481 18.4952 3.23518 18.7145 3.01572C18.8992 2.83086 19.0693 2.81266 19.3955 2.94282ZM16.7794 3.53677C17.1946 3.86349 16.9856 4.29968 16.4139 4.29968C15.8665 4.29968 15.5963 3.77461 15.9987 3.49267C16.2574 3.31133 16.5113 3.32568 16.7794 3.53677ZM26.7112 4.53077C27.7619 5.57254 28.1122 5.98335 28.405 6.51773C28.8639 7.355 29.0961 7.71573 29.1767 7.71692C29.2889 7.71846 30.1607 9.48306 30.1907 9.76918C30.2243 10.0902 30.5039 10.9052 30.6307 11.0515C30.8921 11.3534 31.429 13.7259 31.2044 13.5871C31.0835 13.5123 31.1585 14.2263 31.3279 14.7635C31.4886 15.2725 31.4268 17.0626 31.2356 17.4425C31.1715 17.57 31.0971 17.8666 31.0704 18.1016C31.0436 18.3366 30.9933 18.6025 30.9585 18.6925C30.9143 18.8069 30.9253 18.8375 30.9951 18.7943C31.1256 18.7135 31.1202 18.8368 30.9635 19.5117C30.7451 20.4527 30.4923 21.1355 30.3622 21.1355C30.2956 21.1355 30.2411 21.1836 30.241 21.2423C30.2409 21.3963 29.7406 22.433 29.581 22.6097C29.1977 23.0343 29.2266 22.3845 29.6293 21.5232C29.8531 21.0446 29.8653 20.9844 29.7202 21.0743C29.3822 21.2839 29.2857 20.7091 29.5152 19.8536C29.5845 19.5951 29.6416 19.3835 29.642 19.3835C29.6424 19.3835 29.5084 19.3806 29.3441 19.3771C29.0751 19.3713 29.0455 19.3935 29.0455 19.6014C29.0455 20.4958 28.0716 21.5389 27.7675 20.9702C27.6273 20.7079 27.6645 20.0682 27.8469 19.6051L28.0145 19.1793L27.7177 19.3546C27.4429 19.5169 27.4055 19.5198 27.216 19.3957C26.8089 19.1288 26.7201 18.1628 27.0447 17.5344L27.1694 17.2931L26.8505 17.5096C26.4766 17.7636 26.1974 17.735 25.9101 17.4133C25.1649 16.5792 25.7814 14.8781 26.7301 15.1505C26.968 15.2187 26.9988 15.2099 26.962 15.0843C26.847 14.6926 26.7387 13.8569 26.7918 13.7708C26.8341 13.7023 26.7909 13.6925 26.6464 13.7376C25.9854 13.9441 25.5906 13.7802 25.2781 13.1696C24.7183 12.0753 25.3882 10.8717 26.2957 11.3413C26.7359 11.5692 26.9457 11.9551 26.9823 12.6047L27.0148 13.1792L27.219 13.0453C27.3328 12.9707 27.52 12.9299 27.6416 12.9531C27.8182 12.987 27.8485 12.9684 27.8003 12.8562C27.7676 12.78 27.7226 12.5007 27.7004 12.2356L27.66 11.7536L27.3417 11.7963C27.0704 11.8327 26.9751 11.7967 26.6973 11.5527C26.5181 11.3951 26.3014 11.112 26.2159 10.9237C26.0229 10.4984 26.0095 9.78918 26.1896 9.53186C26.3354 9.32342 26.7158 9.27727 27.006 9.43272C27.1634 9.51699 27.1612 9.49989 26.9761 9.1977C26.5432 8.4912 26.4441 7.94074 26.7031 7.68146C26.8673 7.51729 26.893 7.51677 27.1909 7.67231C27.4527 7.80896 27.4461 7.78734 27.0645 7.25629C26.7579 6.82967 26.606 6.29844 26.7433 6.13282C27.0429 5.77157 28.1915 7.08998 28.1915 7.79512C28.1915 8.11936 28.0672 8.1955 27.8115 8.02791C27.6224 7.90391 27.628 7.93049 27.9007 8.45402C28.0606 8.76117 28.1915 9.07208 28.1915 9.14489C28.1915 9.25103 28.2162 9.25684 28.3155 9.17437C28.3838 9.11771 28.5178 9.09618 28.6134 9.1266C28.7749 9.17788 28.7692 9.14369 28.5321 8.64221C28.1633 7.86195 28.2122 7.2856 28.616 7.65402C28.6805 7.71282 28.6482 7.62625 28.5444 7.46174C28.3167 7.10109 27.8499 6.20623 27.8499 6.13042C27.8499 6.10051 27.9064 6.09778 27.9754 6.12427C28.0444 6.15076 27.8825 5.90489 27.6155 5.57792C27.3486 5.25095 27.0957 4.98337 27.0536 4.98337C26.9278 4.98337 26.1674 4.31361 25.8781 3.9481C25.3573 3.29005 25.7052 3.53335 26.7112 4.53077ZM25.0745 3.63223C25.5342 3.89203 26.2274 4.63443 26.2274 4.86697C26.2274 5.11378 25.8557 4.96457 25.4028 4.5359C24.927 4.08552 24.6514 3.68334 24.7506 3.58412C24.823 3.51156 24.8745 3.51925 25.0745 3.63223ZM23.5628 3.62018C24.1132 3.84118 24.6943 4.54145 24.5782 4.84398C24.4561 5.16267 23.7868 4.94243 23.3441 4.43787C23.0236 4.07261 22.9351 3.81862 23.0711 3.65462C23.1876 3.51412 23.2822 3.50746 23.5628 3.62018ZM11.6671 3.70145C11.7459 3.82913 11.6363 3.95784 11.4486 3.95784C11.2597 3.95784 11.2359 3.86802 11.3853 3.71855C11.5102 3.5936 11.5973 3.5883 11.6671 3.70145ZM21.3597 3.86751C21.4302 3.9063 21.5948 3.98818 21.7256 4.04937C21.9535 4.15619 22.2991 4.60546 22.2991 4.7951C22.2991 4.96841 22.0291 5.15429 21.7772 5.15429C21.1499 5.15429 20.4529 4.46146 20.6707 4.05432C20.8048 3.80341 21.0987 3.72376 21.3597 3.86751ZM18.7709 4.33933C19.3025 4.57068 19.4156 5.1713 18.9723 5.40871C18.3885 5.72141 17.4872 5.09054 17.7678 4.56581C17.9556 4.21473 18.304 4.13611 18.7709 4.33933ZM13.5715 4.31677C13.8413 4.58674 13.5471 4.93423 13.0933 4.88184C12.9231 4.86219 12.855 4.8004 12.8332 4.64631C12.784 4.29729 13.3151 4.06022 13.5715 4.31677ZM26.8416 4.98397C27.2343 5.30795 27.7335 5.98343 27.8123 6.29759L27.8725 6.53773L27.6198 6.40689C27.1152 6.14581 26.1392 4.72699 26.4641 4.72699C26.5004 4.72699 26.6703 4.84261 26.8416 4.98397ZM25.5015 4.88654C25.8876 5.12968 26.2876 5.58459 26.4428 5.95694C26.5663 6.25323 26.5674 6.30357 26.4527 6.41826C26.0903 6.78095 24.8889 5.63715 24.9627 4.99978C24.9957 4.71459 25.1703 4.67793 25.5015 4.88654ZM23.7196 5.06191C24.3797 5.46468 24.6856 6.34468 24.2264 6.51944C23.7779 6.69002 23.0999 6.30588 22.817 5.72107C22.64 5.35521 22.6504 5.09866 22.848 4.96329C23.0164 4.84791 23.4492 4.8968 23.7196 5.06191ZM15.5232 5.0226C15.8308 5.15574 15.946 5.41076 15.8116 5.66184C15.5273 6.19375 14.6133 6.07376 14.6133 5.50451C14.6133 5.07319 15.075 4.8286 15.5232 5.0226ZM21.0078 5.38589C21.3398 5.54963 21.6152 5.95156 21.6156 6.2734C21.6166 6.96478 20.3246 6.94606 19.9381 6.24904C19.5373 5.52613 20.2028 4.98901 21.0078 5.38589ZM18.0227 6.1447C18.3462 6.41715 18.3586 6.67797 18.0643 7.02785C17.8737 7.25458 17.7864 7.29081 17.4314 7.29081C17.0765 7.29081 16.9892 7.25458 16.7986 7.02785C16.5212 6.69797 16.5174 6.40305 16.7871 6.13325C17.0853 5.83473 17.6609 5.84011 18.0227 6.1447ZM12.2506 6.0659C12.3838 6.19914 12.2959 6.52543 12.0906 6.66003C11.6588 6.94316 11.2329 6.49167 11.6098 6.15034C11.7663 6.00864 12.1438 5.95891 12.2506 6.0659ZM25.7879 6.48808C26.3649 6.9823 26.6622 7.76153 26.3811 8.04287C26.3247 8.09927 26.1464 8.14542 25.9846 8.14542C25.7476 8.14542 25.6119 8.06663 25.2854 7.73948C24.8108 7.26406 24.6045 6.73515 24.7602 6.39322C24.9111 6.06189 25.3363 6.1012 25.7879 6.48808ZM23.2451 6.63054C23.8737 7.05434 24.1112 7.78486 23.7409 8.15542C23.3545 8.54205 22.3466 8.1426 22.0766 7.49592C21.9141 7.1069 21.9267 6.92572 22.1345 6.66139C22.3649 6.36835 22.8369 6.35519 23.2451 6.63054ZM14.4037 6.98785C14.6594 7.24372 14.6657 7.37209 14.4363 7.66385C14.301 7.83605 14.1835 7.88904 13.9372 7.88904C13.3498 7.88904 13.1124 7.30543 13.5574 6.95521C13.8559 6.72019 14.1476 6.73147 14.4037 6.98785ZM20.0474 7.1081C20.4212 7.34286 20.5912 7.61762 20.5912 7.98732C20.5912 8.41069 20.2871 8.65819 19.7671 8.65819C19.2873 8.65819 18.8173 8.26293 18.7434 7.79717C18.6412 7.15314 19.4439 6.72891 20.0474 7.1081ZM25.2633 7.97151C25.911 8.36677 26.2694 9.43135 25.8899 9.83328C25.4528 10.2962 24.5681 9.88848 24.2247 9.06567C24.0313 8.60273 24.0566 8.259 24.3021 8.01339C24.5568 7.75837 24.8902 7.74393 25.2633 7.97151ZM16.6909 7.97818C16.9513 8.1832 17.0641 8.6434 16.92 8.91278C16.8649 9.01576 16.6852 9.15626 16.5206 9.22514C15.6856 9.57424 14.9697 8.59324 15.6447 8.02484C15.9665 7.75376 16.3823 7.73521 16.6909 7.97818ZM29.2355 8.54692C29.4172 8.90876 29.6239 9.21334 29.6948 9.22377C29.7658 9.23419 29.812 9.21693 29.7976 9.18548C29.3977 8.31113 29.2636 8.08201 29.1064 8.0039C29.0025 7.95228 28.9147 7.90528 28.9113 7.89955C28.9079 7.89374 29.0538 8.18508 29.2355 8.54692ZM10.7989 8.11696C10.8917 8.20977 10.8639 8.53051 10.7534 8.6411C10.697 8.6975 10.5433 8.74365 10.4118 8.74365C10.2155 8.74365 10.1727 8.70647 10.1727 8.53607C10.1727 8.19704 10.5959 7.91374 10.7989 8.11696ZM22.3854 8.42317C22.812 8.71374 22.9919 9.00704 22.9977 9.4211C23.0047 9.93557 22.6995 10.2392 22.1754 10.2392C21.7486 10.2392 21.4269 10.0431 21.1249 9.59911C20.8667 9.21933 20.877 8.82304 21.1538 8.49385C21.337 8.27592 21.4373 8.23088 21.739 8.23088C21.976 8.23088 22.2016 8.29797 22.3854 8.42317ZM18.8446 9.03473C19.1883 9.18454 19.3956 9.51682 19.3956 9.91805C19.3956 10.3323 19.2186 10.5843 18.8403 10.7093C18.0636 10.9658 17.3341 10.2014 17.6449 9.45691C17.7268 9.26077 17.8652 9.12369 18.0661 9.03969C18.4268 8.88885 18.5088 8.88834 18.8446 9.03473ZM13.0771 9.06909C13.2324 9.19488 13.2566 9.27411 13.2079 9.49622C13.1348 9.82926 12.8741 10.0256 12.5051 10.0256C12.1996 10.0256 12.0514 9.84592 12.0514 9.47571C12.0514 8.99208 12.6764 8.74433 13.0771 9.06909ZM29.359 9.80567C29.2327 9.75722 29.2357 9.7932 29.3853 10.1232C29.4781 10.3281 29.555 10.5584 29.556 10.6352C29.557 10.7123 29.6461 10.7916 29.7551 10.8125L29.9523 10.8503L29.7809 10.2679C29.6866 9.94762 29.5852 9.72491 29.5555 9.77303C29.5259 9.82106 29.4374 9.83584 29.359 9.80567ZM27.5506 10.0469C27.6612 10.2467 27.7782 10.5553 27.8108 10.7328C27.8586 10.9944 27.892 11.037 27.9875 10.9578C28.0523 10.904 28.1861 10.8812 28.285 10.907C28.4367 10.9467 28.4564 10.9251 28.4114 10.7675C28.3821 10.665 28.3146 10.4003 28.2612 10.1794C28.1763 9.82764 28.1447 9.78824 28.0073 9.86182C27.8961 9.92139 27.7821 9.90874 27.6154 9.81824C27.4861 9.74799 27.3733 9.68902 27.3649 9.68714C27.3565 9.68526 27.44 9.84712 27.5506 10.0469ZM24.5282 9.87669C25.3709 10.4372 25.3854 11.8195 24.5506 12.0291C24.2649 12.1009 23.6489 11.8152 23.4324 11.5105C22.655 10.4159 23.4828 9.18147 24.5282 9.87669ZM15.4131 10.2027C15.6722 10.4066 15.7093 10.7509 15.5132 11.1304C15.3741 11.3994 15.2281 11.4784 14.8695 11.4784C14.5109 11.4784 14.3649 11.3994 14.2259 11.1304C14.0406 10.7718 14.0723 10.5538 14.3506 10.2754C14.6559 9.96984 15.0805 9.94079 15.4131 10.2027ZM21.1532 10.3648C21.6261 10.5562 21.9713 11.3073 21.8101 11.7943C21.6346 12.3246 20.8448 12.578 20.325 12.2708C20.0577 12.1128 19.7372 11.5472 19.7372 11.2336C19.7372 10.9724 19.9527 10.5765 20.1827 10.4154C20.3867 10.2723 20.8635 10.2474 21.1532 10.3648ZM9.36189 10.5391C9.3911 10.5865 9.39084 10.7019 9.36113 10.7955C9.29776 10.9952 8.99392 11.0235 8.92218 10.8363C8.82705 10.5882 9.22569 10.3187 9.36189 10.5391ZM17.4314 11.2324C17.7491 11.3588 18.0993 11.727 18.1586 11.997C18.2729 12.5178 17.6426 13.0955 17.0921 12.9745C16.2392 12.787 16.0905 11.5879 16.8793 11.258C17.039 11.1913 17.1806 11.139 17.1939 11.1419C17.2071 11.1449 17.314 11.1856 17.4314 11.2324ZM11.6244 11.4784C11.9464 11.8006 11.7317 12.333 11.2799 12.333C10.7771 12.333 10.6459 11.6426 11.1023 11.3982C11.3412 11.2701 11.43 11.2838 11.6244 11.4784ZM30.4594 11.8131C30.4894 11.8875 30.5347 12.0935 30.5599 12.271C30.6021 12.5686 30.7127 12.7441 30.8019 12.6549C30.8222 12.6345 30.7964 12.4063 30.7445 12.1478C30.6827 11.8397 30.6079 11.6778 30.5273 11.6778C30.4492 11.6778 30.4244 11.727 30.4594 11.8131ZM29.1309 11.7733C29.1309 11.7945 29.1716 12.0018 29.2213 12.234C29.2994 12.5982 29.3358 12.6499 29.4858 12.6107C29.6279 12.5735 29.6505 12.5184 29.6089 12.3102C29.5808 12.1699 29.5579 11.9831 29.5579 11.895C29.5579 11.7811 29.4962 11.7348 29.3444 11.7348C29.227 11.7348 29.1309 11.7521 29.1309 11.7733ZM23.2084 11.9105C23.5586 12.016 23.9837 12.506 24.055 12.8861C24.1322 13.2979 24.0429 13.5921 23.7531 13.8822C23.5539 14.0816 23.4339 14.1277 23.1136 14.1277C22.7742 14.1277 22.6705 14.082 22.3661 13.7979C22.0419 13.4952 22.0098 13.4259 21.9758 12.9552C21.9418 12.4848 21.959 12.42 22.183 12.1738C22.4542 11.8756 22.799 11.7871 23.2084 11.9105ZM13.9613 12.5956C14.4424 12.9743 14.1323 13.7858 13.5065 13.7858C12.963 13.7858 12.709 13.0346 13.115 12.6283C13.3711 12.3719 13.6629 12.3606 13.9613 12.5956ZM19.8899 12.6719C20.5604 12.9802 20.6714 13.7816 20.116 14.3037C19.7938 14.6067 19.1456 14.6001 18.8365 14.2907C18.2533 13.707 18.5211 12.7231 19.3102 12.5504C19.434 12.5232 19.6774 12.5744 19.8899 12.6719ZM25.5013 13.7258C25.7644 13.9891 25.9697 14.4768 25.9707 14.8412C25.9715 15.1264 25.691 15.5976 25.423 15.7612C24.8977 16.0818 24.3857 15.8683 24.0836 15.2027C23.8885 14.7728 23.882 14.487 24.057 14.0491C24.3235 13.3826 25.0058 13.2299 25.5013 13.7258ZM16.3678 13.8247C16.5277 13.9846 16.5775 14.1249 16.5775 14.4153C16.5775 14.7357 16.5357 14.8313 16.3147 15.0174C15.9589 15.3171 15.6082 15.3073 15.2899 14.9889C14.9289 14.6275 14.9684 14.0365 15.3745 13.7245C15.6151 13.5395 16.1355 13.5921 16.3678 13.8247ZM30.3122 14.1998C30.3335 14.5042 30.376 14.6079 30.483 14.616C30.6027 14.6252 30.6208 14.5545 30.5967 14.1736C30.5731 13.8005 30.5429 13.7268 30.4259 13.7573C30.3132 13.7868 30.2897 13.8781 30.3122 14.1998ZM28.4626 14.0636C28.5078 14.2634 28.5244 14.53 28.4995 14.6563C28.4558 14.8778 28.4629 14.8827 28.7072 14.7974C28.9449 14.7145 28.9601 14.6817 28.9601 14.2532C28.9601 13.8213 28.9476 13.7953 28.7253 13.7616C28.5961 13.742 28.4657 13.7202 28.4354 13.7132C28.4052 13.7061 28.4174 13.8638 28.4626 14.0636ZM10.3934 14.073C10.4203 14.1432 10.4297 14.2901 10.4143 14.3992C10.392 14.5565 10.333 14.5977 10.13 14.5977C9.89409 14.5977 9.87377 14.574 9.87377 14.2986C9.87377 14.0356 9.90221 13.9962 10.1091 13.9724C10.2584 13.9552 10.3623 13.992 10.3934 14.073ZM22.1795 14.2043C22.4444 14.366 22.7261 14.9021 22.7261 15.2447C22.7261 15.6515 22.3481 16.084 21.8914 16.1999C21.3788 16.3302 20.767 15.8768 20.6391 15.2721C20.5602 14.8993 20.805 14.3249 21.1099 14.1672C21.4401 13.9962 21.8626 14.0109 22.1795 14.2043ZM18.6204 15.1181C18.8492 15.3107 18.8832 15.3946 18.8832 15.7656C18.8832 16.1229 18.8427 16.2324 18.6336 16.4417C18.1031 16.9726 17.1753 16.6165 17.1753 15.8819C17.1753 15.5159 17.3671 15.1082 17.5975 14.9849C17.8969 14.8245 18.3405 14.8823 18.6204 15.1181ZM12.5765 15.0154C12.8904 15.1719 12.9747 15.5321 12.764 15.8157C12.5203 16.1438 12.2049 16.1641 11.971 15.8667C11.5909 15.383 12.042 14.7487 12.5765 15.0154ZM30.9102 16.1852C30.8897 16.5489 30.9117 16.6918 30.9883 16.6917C31.0567 16.6916 31.0955 16.5612 31.0962 16.3283C31.0968 16.1285 31.1207 15.878 31.1492 15.7715C31.1895 15.6212 31.1717 15.5892 31.0699 15.6283C30.9775 15.6638 30.9303 15.8279 30.9102 16.1852ZM27.3295 16.0267C27.411 16.3221 27.4067 16.4702 27.3073 16.7971L27.1843 17.2017L27.3653 17.0748C27.4649 17.005 27.6627 16.9479 27.8049 16.9479H28.0634V16.3134V15.6788L27.8371 15.7241C27.7125 15.7491 27.54 15.7298 27.4534 15.6814C27.233 15.558 27.2144 15.6098 27.3295 16.0267ZM23.9562 15.709C24.2995 15.8909 24.4113 16.0644 24.522 16.5858C24.6089 16.9952 24.6004 17.0631 24.4279 17.3424C23.9464 18.122 23.0446 18.1677 22.6949 17.4302C22.2372 16.4648 23.1172 15.264 23.9562 15.709ZM29.5579 16.1717C29.5579 16.3559 29.5371 16.561 29.5115 16.6275C29.4767 16.7184 29.5244 16.7397 29.7037 16.7134C29.9278 16.6805 29.9422 16.6529 29.9422 16.2576C29.9422 15.8783 29.9233 15.8369 29.75 15.8369C29.5834 15.8369 29.5579 15.8815 29.5579 16.1717ZM14.8414 16.1364C15.1262 16.2562 15.2111 16.4058 15.2111 16.7878C15.2111 17.1049 14.8724 17.4607 14.5706 17.4607C14.0982 17.4607 13.7702 16.8083 14.0138 16.353C14.1437 16.1099 14.5351 16.0074 14.8414 16.1364ZM20.7685 16.5995C20.9763 16.8074 21.0178 16.9184 21.0163 17.2618C21.0134 17.8841 20.6631 18.2298 20.0351 18.2298C19.5821 18.2298 19.2248 17.8534 19.2248 17.3761C19.2248 16.723 19.5572 16.3546 20.1494 16.3516C20.4454 16.35 20.5685 16.3994 20.7685 16.5995ZM25.5538 17.329C26.0461 17.6044 26.1113 18.5588 25.6768 19.1289C25.0767 19.9162 24.179 19.5937 24.1782 18.5903C24.1773 17.6615 24.9241 16.9768 25.5538 17.329ZM17.2218 17.4995C17.6897 17.9677 17.358 18.828 16.7097 18.828C16.2189 18.828 15.8865 18.3566 16.0153 17.8431C16.1548 17.287 16.8202 17.0975 17.2218 17.4995ZM11.5802 17.5995C11.7499 17.7693 11.7194 18.0514 11.5177 18.1779C11.208 18.3722 10.873 17.877 11.116 17.5842C11.2499 17.4225 11.4086 17.4278 11.5802 17.5995ZM30.1557 17.9198C30.1557 18.0674 30.119 18.3162 30.0742 18.4726C30.0052 18.7134 30.0112 18.7416 30.1132 18.657C30.1794 18.602 30.2705 18.5798 30.3158 18.6078C30.3949 18.6567 30.4266 18.5515 30.536 17.8781C30.5836 17.5844 30.5755 17.5712 30.3709 17.6103C30.1953 17.6439 30.1557 17.7009 30.1557 17.9198ZM28.4477 17.853C28.4477 17.9983 28.3944 18.2944 28.3293 18.511L28.2109 18.9048L28.4231 18.7657C28.5931 18.6541 28.6675 18.6467 28.7977 18.728C28.9481 18.822 28.9601 18.8016 28.9601 18.4548C28.9601 18.2489 28.9822 17.9697 29.0092 17.8346C29.056 17.6006 29.0437 17.5889 28.753 17.5889C28.4687 17.5889 28.4477 17.6071 28.4477 17.853ZM22.5821 18.0089C23.1941 18.5765 22.824 19.7139 21.991 19.8257C21.0216 19.9559 20.674 18.5082 21.5468 17.9757C21.9299 17.7418 22.3072 17.754 22.5821 18.0089ZM19.2182 18.7929C19.4312 18.9722 19.481 19.0791 19.481 19.357C19.481 19.8051 19.0436 20.2809 18.6317 20.2809C17.9634 20.2809 17.6795 19.3358 18.1935 18.8215C18.5117 18.503 18.8624 18.4932 19.2182 18.7929ZM13.8742 18.728C13.9519 18.8139 14.0155 18.9802 14.0155 19.0976C14.0155 19.3366 13.6966 19.6826 13.4763 19.6826C13.2529 19.6826 12.9908 19.3668 12.9908 19.0977C12.9908 18.6349 13.5706 18.3923 13.8742 18.728ZM26.781 19.1179C27.2206 19.5578 26.9591 20.6778 26.3152 21.1141C25.9522 21.36 25.8422 21.356 25.573 21.0866C25.3797 20.8931 25.3578 20.8128 25.3906 20.4165C25.4518 19.6778 25.8318 19.1149 26.3754 18.9579C26.5135 18.9181 26.6255 18.9623 26.781 19.1179ZM30.501 19.3004C30.4479 19.2676 30.4119 19.3345 30.4119 19.4661C30.4119 19.5875 30.3389 19.8948 30.2496 20.1488C30.122 20.5122 30.1129 20.601 30.2069 20.5649C30.2914 20.5325 30.3284 20.5906 30.3332 20.7631C30.3372 20.9051 30.3903 20.7756 30.46 20.4537C30.526 20.1492 30.6372 19.7319 30.7071 19.5263C30.8154 19.2085 30.8161 19.1678 30.7122 19.2541C30.6451 19.3099 30.55 19.3307 30.501 19.3004ZM24.0903 19.5096C24.4832 19.9027 24.4111 20.5803 23.9247 21.0672C23.6709 21.321 23.5341 21.3919 23.2974 21.3919C22.7135 21.3919 22.4513 20.6634 22.7833 19.9632C23.0468 19.4074 23.7457 19.1648 24.0903 19.5096ZM15.8401 19.7743C16.2843 20.124 16.0587 20.8791 15.51 20.8791C14.9613 20.8791 14.7357 20.124 15.1799 19.7743C15.3037 19.6769 15.4522 19.5972 15.51 19.5972C15.5678 19.5972 15.7163 19.6769 15.8401 19.7743ZM20.9262 20.1603C21.1481 20.3471 21.1889 20.4415 21.1889 20.7671C21.1889 21.5521 20.2608 22.0581 19.8288 21.5085C19.4788 21.0633 19.6666 20.3295 20.1947 20.0788C20.58 19.8958 20.6169 19.8999 20.9262 20.1603ZM29.3017 20.9066C29.3017 21.4289 29.0866 21.9968 28.7314 22.412C28.5203 22.6588 28.3708 22.7604 28.245 22.7424C28.0897 22.7203 28.0641 22.6608 28.0681 22.3319C28.0731 21.9105 28.427 21.0459 28.7237 20.7298C28.8231 20.6239 28.9938 20.5373 29.1031 20.5373C29.2804 20.5373 29.3017 20.577 29.3017 20.9066ZM27.5598 20.8377C27.7175 21.0786 27.6777 21.5798 27.4687 21.9841C27.3013 22.3082 26.6882 22.8447 26.4853 22.8447C26.2283 22.8447 26.0294 22.4803 26.1023 22.1432C26.2554 21.4343 26.8717 20.6227 27.2568 20.6227C27.346 20.6227 27.4824 20.7195 27.5598 20.8377ZM17.5718 20.8784C17.818 20.9778 18.0292 21.2951 18.0292 21.5657C18.0292 21.8279 17.7643 22.1385 17.4797 22.21C16.8325 22.3725 16.5096 21.4031 17.0653 20.9656C17.3075 20.7748 17.313 20.7739 17.5718 20.8784ZM25.1742 21.0992C25.3576 21.2828 25.3867 21.3747 25.3495 21.6524C25.2643 22.2884 24.6884 22.9291 24.2012 22.9298C24.0919 22.93 23.951 22.8386 23.8699 22.7147C23.5689 22.2549 23.9779 21.2461 24.565 21.0005C24.9376 20.8448 24.9165 20.8414 25.1742 21.0992ZM12.8343 21.1756C12.919 21.3614 12.9117 21.4221 12.7909 21.5431C12.5914 21.7428 12.3503 21.5848 12.3503 21.2544C12.3503 20.9095 12.6881 20.8545 12.8343 21.1756ZM22.279 21.4805C22.7495 21.6696 22.6877 22.4647 22.1668 22.9224C21.631 23.3932 21.1035 23.1948 21.1035 22.5223C21.1035 22.1349 21.3131 21.7597 21.6415 21.5594C21.9442 21.3746 21.9989 21.3679 22.279 21.4805ZM30.3238 21.6055C30.3238 21.6525 30.2866 21.7487 30.2411 21.8192C30.1956 21.8897 30.1583 21.9089 30.1583 21.8619C30.1583 21.8149 30.1956 21.7188 30.2411 21.6482C30.2866 21.5777 30.3238 21.5585 30.3238 21.6055ZM14.767 22.0926C15 22.3258 14.7799 22.9302 14.462 22.9302C14.3358 22.9302 14.1009 22.5882 14.1009 22.4045C14.1009 22.0794 14.5458 21.8712 14.767 22.0926ZM19.3514 22.28C19.7204 22.6493 19.6175 23.2383 19.1411 23.4848C18.8165 23.6527 18.7464 23.6479 18.5416 23.4429C18.3007 23.2018 18.3116 22.663 18.563 22.3864C18.8596 22.0598 19.0992 22.0275 19.3514 22.28ZM29.2155 22.5242C29.2134 23.0002 28.3634 24.2975 28.0535 24.2975C27.7296 24.2975 28.1133 23.292 28.6741 22.6707C29.0173 22.2906 29.2167 22.2366 29.2155 22.5242ZM27.793 22.3889C27.8891 22.4851 27.8564 22.9203 27.7301 23.2226C27.6004 23.5333 27.0607 24.1714 26.8174 24.3017C26.5334 24.4538 26.3744 24.3069 26.4239 23.938C26.5281 23.1608 27.4838 22.0795 27.793 22.3889ZM29.9849 22.4629C29.9849 22.6775 28.8952 24.432 28.8131 24.3498C28.6994 24.236 29.7297 22.4174 29.9078 22.4174C29.9502 22.4174 29.9849 22.4379 29.9849 22.4629ZM25.8516 22.7175C26.1962 23.2439 25.4778 24.3815 24.8 24.3827C24.5606 24.3831 24.4136 24.115 24.4848 23.8079C24.5781 23.4051 24.9469 22.842 25.2307 22.6687C25.5857 22.4521 25.6828 22.4598 25.8516 22.7175ZM23.4247 23.0317C23.7374 23.2759 23.65 23.7373 23.2071 24.1806C22.7568 24.6312 22.3597 24.695 22.1993 24.3427C22.0812 24.0833 22.2829 23.4828 22.5829 23.2007C22.8321 22.9665 23.2371 22.8851 23.4247 23.0317ZM16.5047 23.3084C16.7044 23.7469 16.3517 24.2404 15.9807 24.0417C15.7395 23.9125 15.6755 23.5717 15.8442 23.3141C16.0299 23.0304 16.3768 23.0274 16.5047 23.3084ZM20.7612 23.6556C20.9377 23.8685 20.7913 24.3395 20.4574 24.6329C20.0959 24.9505 19.8724 24.9658 19.6888 24.6854C19.4133 24.2646 19.8552 23.5284 20.3833 23.5284C20.5331 23.5284 20.7031 23.5857 20.7612 23.6556ZM27.7213 24.0401C27.8165 24.1944 27.4423 24.881 27.0477 25.2757C26.6601 25.6637 26.3128 25.7854 26.3128 25.5333C26.3128 25.289 26.6639 24.7108 27.0423 24.3322C27.4122 23.9619 27.6183 23.8734 27.7213 24.0401ZM28.7039 24.1525C28.7039 24.4668 27.5887 25.8593 27.4489 25.7194C27.3628 25.6332 27.6364 25.1538 28.0975 24.5829C28.5055 24.078 28.7039 23.9372 28.7039 24.1525ZM26.142 24.3445C26.142 24.8713 25.3178 25.7504 24.824 25.7504C24.5984 25.7504 24.6673 25.2959 24.9547 24.8872C25.3136 24.377 25.6261 24.1276 25.9072 24.127C26.102 24.1267 26.142 24.1637 26.142 24.3445ZM17.9268 24.3146C18.0991 24.4871 18.0454 24.8874 17.8196 25.1133C17.7043 25.2286 17.5726 25.3231 17.5268 25.3231C17.3611 25.3231 17.1753 25.0488 17.1753 24.8042C17.1753 24.3687 17.6632 24.0509 17.9268 24.3146ZM13.8714 24.2673C13.9971 24.393 13.931 24.6521 13.7807 24.6231C13.6986 24.6073 13.6313 24.5211 13.6313 24.4317C13.6313 24.2616 13.7705 24.1663 13.8714 24.2673ZM24.0603 24.5077C24.1948 24.8584 23.5721 25.7183 23.0676 25.8786C22.5293 26.0496 22.589 25.2893 23.1586 24.7193C23.5149 24.3627 23.9642 24.2573 24.0603 24.5077ZM21.6444 24.7818C21.6757 24.8131 21.7013 24.9715 21.7013 25.1337C21.7013 25.3624 21.6268 25.5032 21.3698 25.7605C20.776 26.3547 20.2951 26.0924 20.6409 25.363C20.8478 24.9267 21.4441 24.5814 21.6444 24.7818ZM15.513 25.3326C15.5495 25.4478 15.5208 25.5625 15.4334 25.65C15.3078 25.7757 15.2852 25.7757 15.1596 25.65C14.9865 25.4768 15.0758 25.1521 15.2965 25.1521C15.3841 25.1521 15.4816 25.2333 15.513 25.3326ZM19.0327 25.3796C19.2391 25.4631 19.1547 25.9601 18.8912 26.2127C18.5594 26.5309 18.2854 26.4601 18.2854 26.0562C18.2854 25.6076 18.69 25.2413 19.0327 25.3796ZM27.2522 25.628C27.2522 25.8087 26.1174 26.9468 25.9373 26.9468C25.7409 26.9468 25.7662 26.8638 26.0847 26.4629C26.3922 26.0759 26.7581 25.7482 27.06 25.5891C27.2223 25.5037 27.2522 25.5098 27.2522 25.628ZM25.9712 25.6762C25.9712 26.1302 24.6561 27.2372 24.4716 26.9385C24.3977 26.8187 24.8234 26.2232 25.2352 25.8704C25.5654 25.5877 25.9712 25.4806 25.9712 25.6762ZM27.7978 25.7717C27.5182 26.2516 26.3998 27.3344 26.637 26.8956C26.7701 26.6493 27.6818 25.6649 27.7768 25.6649C27.8225 25.6649 27.832 25.713 27.7978 25.7717ZM24.1209 25.8074C24.2489 25.9355 24.1637 26.2445 23.943 26.4521C23.62 26.756 23.0682 27.1178 22.9276 27.1178C22.5785 27.1178 23.0202 26.3437 23.5674 25.9964C23.9791 25.7352 24.0311 25.7174 24.1209 25.8074ZM22.0714 26.0638C22.1958 26.1882 22.1152 26.4429 21.8595 26.7345C21.4123 27.2441 20.9327 27.4119 20.9327 27.0587C20.9327 26.6132 21.8337 25.8258 22.0714 26.0638ZM16.782 26.3134C16.8488 26.4874 16.6083 26.8859 16.4653 26.8382C16.4096 26.8196 16.364 26.673 16.364 26.5124C16.364 26.2799 16.4009 26.2151 16.5453 26.1945C16.6542 26.179 16.7487 26.2263 16.782 26.3134ZM19.908 26.7038C19.908 26.99 19.5074 27.4596 19.2631 27.4596C19.09 27.4596 19.054 27.4175 19.054 27.2157C19.054 26.9018 19.4034 26.5195 19.6904 26.5195C19.8563 26.5195 19.908 26.5633 19.908 26.7038ZM26.3128 27.0158C26.3128 27.1346 25.5228 27.8494 25.216 28.0082C24.8187 28.2138 24.8878 28.0369 25.3698 27.615C25.8529 27.192 26.3128 26.8998 26.3128 27.0158ZM25.3734 27.0436C25.3734 27.28 24.0778 28.2426 23.9422 28.1069C23.8426 28.0071 24.0469 27.7711 24.5951 27.3528C25.1179 26.9538 25.3734 26.8523 25.3734 27.0436ZM23.9217 27.1507C23.9217 27.4332 22.7494 28.2805 22.5855 28.1166C22.4921 28.023 22.8035 27.6381 23.2199 27.3323C23.6417 27.0225 23.9217 26.9502 23.9217 27.1507ZM26.2274 27.5407C25.9691 27.7823 25.6809 28.0193 25.5869 28.0673C25.3902 28.168 25.4387 28.1238 26.24 27.4728L26.6971 27.1014L26.2274 27.5407ZM17.7212 27.253C17.7988 27.4554 17.786 27.5198 17.6389 27.6672C17.4389 27.8672 17.2607 27.8332 17.2607 27.5948C17.2607 27.2806 17.3481 27.1178 17.5168 27.1178C17.6007 27.1178 17.6927 27.1786 17.7212 27.253ZM22.1283 27.3584C22.1283 27.654 21.1116 28.4362 20.9445 28.269C20.794 28.1184 21.5191 27.3723 21.9362 27.2487C22.0892 27.2033 22.1283 27.2256 22.1283 27.3584ZM20.2496 27.7292C20.2496 27.8685 19.5848 28.4851 19.4347 28.4851C19.2188 28.4851 19.2993 28.1874 19.5918 27.9037C19.8681 27.6357 20.2496 27.5345 20.2496 27.7292ZM18.2854 28.1812C18.2854 28.3712 17.9005 28.7776 17.787 28.7074C17.637 28.6146 17.666 28.4991 17.8973 28.2676C18.1332 28.0314 18.2854 27.9976 18.2854 28.1812ZM24.434 28.2229C24.434 28.3894 23.2009 29.1597 23.0985 29.0572C23.0341 28.9928 23.5818 28.5726 24.0193 28.3508C24.2474 28.2351 24.434 28.1776 24.434 28.2229ZM25.0318 28.3547C24.8721 28.5526 24.008 29.1128 23.9507 29.0554C23.9149 29.0196 24.6163 28.5101 25.0318 28.2699C25.1457 28.2041 25.1457 28.2135 25.0318 28.3547ZM23.1877 28.4096C22.9994 28.6189 22.2239 29.0814 22.0592 29.0826C21.868 29.084 22.043 28.9087 22.5789 28.562C23.1617 28.1851 23.4559 28.1114 23.1877 28.4096ZM21.7867 28.3921C21.7867 28.5882 20.8853 29.1688 20.5807 29.1688C20.424 29.1688 20.7368 28.8609 21.1874 28.5715C21.5953 28.3096 21.7867 28.2522 21.7867 28.3921ZM20.0788 28.7007C20.0788 28.8223 19.3679 29.3397 19.201 29.3397C19.0453 29.3397 19.2071 29.1172 19.5584 28.8483C19.9607 28.5404 20.0788 28.5069 20.0788 28.7007ZM16.5775 28.8219C16.5775 28.8662 16.539 28.9261 16.4921 28.9552C16.4451 28.9842 16.4067 28.948 16.4067 28.8747C16.4067 28.8015 16.4451 28.7415 16.4921 28.7415C16.539 28.7415 16.5775 28.7777 16.5775 28.8219ZM18.2427 29.2543C18.1077 29.3953 17.9397 29.5107 17.8692 29.5107C17.7814 29.5107 17.8183 29.43 17.9865 29.2543C18.1215 29.1133 18.2896 28.9979 18.3601 28.9979C18.4479 28.9979 18.411 29.0786 18.2427 29.2543ZM23.2385 29.2957C23.2385 29.375 22.1274 29.88 22.0729 29.8256C22.0471 29.7997 22.2123 29.6847 22.4401 29.5702C22.918 29.3297 23.2385 29.2196 23.2385 29.2957ZM22.2991 29.3015C22.2991 29.3889 21.1924 29.868 21.0834 29.8278C21.024 29.806 21.2252 29.6681 21.5305 29.5213C22.0602 29.2667 22.2991 29.1983 22.2991 29.3015ZM21.0181 29.3386C21.0181 29.4348 20.6336 29.6441 20.1331 29.8205C19.8198 29.9309 19.7944 29.9305 19.908 29.8174C20.0861 29.64 21.0181 29.238 21.0181 29.3386ZM23.6655 29.38C23.6655 29.4035 23.4349 29.5392 23.1531 29.6816C22.8713 29.824 22.6407 29.9212 22.6407 29.8977C22.6407 29.8742 22.8713 29.7385 23.1531 29.5961C23.4349 29.4537 23.6655 29.3565 23.6655 29.38ZM19.5795 29.5376C19.4545 29.6882 18.7128 30.0523 18.6529 29.9924C18.5978 29.9373 18.9369 29.7214 19.349 29.5493C19.636 29.4295 19.6706 29.4278 19.5795 29.5376ZM16.832 29.6409C16.7725 29.7125 16.7063 29.7535 16.6848 29.7321C16.6256 29.6728 16.746 29.5107 16.8491 29.5107C16.9058 29.5107 16.8993 29.5597 16.832 29.6409ZM18.0716 29.8531C18.0423 29.9004 17.8959 29.9984 17.7463 30.0707L17.4741 30.2022L17.7303 29.9851C17.99 29.7649 18.1687 29.6958 18.0716 29.8531ZM20.7099 30.232C20.5637 30.3002 20.3332 30.3776 20.1975 30.4038L19.9507 30.4517L20.2163 30.3276C20.3624 30.2594 20.593 30.182 20.7286 30.1558L20.9754 30.1079L20.7099 30.232ZM19.5695 30.2871C19.3128 30.3782 19.0637 30.4397 19.0159 30.4238C18.9086 30.388 19.7164 30.1065 19.9018 30.1151C19.9757 30.1185 19.8261 30.196 19.5695 30.2871ZM21.6159 30.229C21.6159 30.2481 21.443 30.3227 21.2316 30.3948C20.7711 30.5518 20.7222 30.5054 21.1567 30.3236C21.4655 30.1945 21.6159 30.1636 21.6159 30.229ZM18.4135 30.3638C18.2256 30.4561 18.0143 30.5296 17.9438 30.527C17.8001 30.5217 18.213 30.3293 18.5416 30.2484C18.6609 30.219 18.6044 30.27 18.4135 30.3638ZM17.2607 30.5362C17.1902 30.5817 17.0941 30.619 17.0472 30.619C17.0002 30.619 17.0194 30.5817 17.0899 30.5362C17.1603 30.4906 17.2564 30.4534 17.3034 30.4534C17.3503 30.4534 17.3311 30.4906 17.2607 30.5362ZM19.4169 30.7637C19.3582 30.7874 19.2621 30.7874 19.2034 30.7637C19.1447 30.74 19.1928 30.7206 19.3102 30.7206C19.4276 30.7206 19.4756 30.74 19.4169 30.7637ZM18.3922 30.7637C18.3334 30.7874 18.2373 30.7874 18.1787 30.7637C18.1199 30.74 18.168 30.7206 18.2854 30.7206C18.4028 30.7206 18.4508 30.74 18.3922 30.7637ZM20.0361 30.878C19.9421 30.9185 19.8076 30.9536 19.7372 30.9561C19.6233 30.9603 19.6233 30.9517 19.7372 30.878C19.8076 30.8325 19.9421 30.7973 20.0361 30.7999L20.2069 30.8046L20.0361 30.878ZM18.9846 30.8509C18.923 30.8756 18.8493 30.8726 18.821 30.8442C18.7926 30.8158 18.843 30.7956 18.933 30.7993C19.0325 30.8034 19.0527 30.8237 18.9846 30.8509Z" fill="#00B5A0"/>
</g>
<path d="M16.7616 25.1138C16.9108 23.315 23.4303 15.4906 26.5953 12.0596C23.5794 14.9243 17.0458 21.9276 16.0813 22.7516C14.8444 23.8084 13.5456 26.1706 14.7207 28.5949C15.9009 31.0297 18.0424 31.4361 19.1118 31.2058C19.9777 31.0193 21.0185 30.7442 21.4162 30.461C17.9861 30.9607 16.5669 27.4626 16.7616 25.1138Z" fill="black" fill-opacity="0.14"/>
<path d="M84.5615 24.506C83.3081 24.506 82.1409 24.2776 81.0598 23.8209C79.9787 23.3643 79.0308 22.7265 78.2161 21.9076C77.4013 21.0887 76.7668 20.128 76.3124 19.0257C75.858 17.9233 75.6309 16.7186 75.6309 15.4115C75.6309 14.1044 75.8502 12.8997 76.2889 11.7974C76.7276 10.6793 77.3465 9.71864 78.1456 8.91549C78.9446 8.0966 79.8769 7.46668 80.9423 7.02573C82.0233 6.56904 83.1984 6.3407 84.4675 6.3407C85.7366 6.3407 86.8726 6.5533 87.8753 6.97849C88.8937 7.40369 89.7554 7.97061 90.4605 8.67927C91.1655 9.38793 91.6669 10.1753 91.9646 11.0415L88.7449 12.6005C88.4472 11.7501 87.9223 11.0493 87.1702 10.4982C86.4339 9.93123 85.533 9.64777 84.4675 9.64777C83.4335 9.64777 82.5247 9.89187 81.7413 10.3801C80.9579 10.8682 80.3469 11.5454 79.9082 12.4115C79.4852 13.2619 79.2736 14.2619 79.2736 15.4115C79.2736 16.5611 79.5008 17.569 79.9552 18.4351C80.4096 19.3013 81.0284 19.9784 81.8118 20.4666C82.6109 20.9548 83.5275 21.1989 84.5615 21.1989C85.3606 21.1989 86.1048 21.0493 86.7942 20.7501C87.4993 20.4351 88.0633 19.9863 88.4863 19.4036C88.925 18.821 89.1444 18.1202 89.1444 17.3013V15.8367L90.813 17.254H84.4675V14.1832H92.9109V16.0493C92.9109 17.4824 92.5522 18.7343 92.0821 19.8052C91.6121 20.8603 90.9775 21.7422 90.1785 22.4509C89.3951 23.1438 88.5098 23.6635 87.5228 24.0099C86.5514 24.3406 85.5643 24.506 84.5615 24.506Z" fill="url(#paint2_linear_1_1868)"/>
<path d="M100.355 24.506C99.0863 24.506 97.9269 24.2146 96.8771 23.632C95.843 23.0493 95.0126 22.254 94.3859 21.2462C93.7749 20.2225 93.4694 19.0651 93.4694 17.7737C93.4694 16.4666 93.7749 15.3092 94.3859 14.3013C95.0126 13.2934 95.843 12.4982 96.8771 11.9155C97.9269 11.3328 99.0863 11.0415 100.355 11.0415C101.624 11.0415 102.776 11.3328 103.81 11.9155C104.844 12.4982 105.667 13.2934 106.278 14.3013C106.905 15.3092 107.218 16.4666 107.218 17.7737C107.218 19.0651 106.905 20.2225 106.278 21.2462C105.667 22.254 104.844 23.0493 103.81 23.632C102.776 24.2146 101.624 24.506 100.355 24.506ZM100.355 21.317C100.998 21.317 101.554 21.1674 102.024 20.8682C102.51 20.569 102.886 20.1517 103.152 19.6162C103.434 19.0808 103.575 18.4666 103.575 17.7737C103.575 17.0808 103.434 16.4745 103.152 15.9548C102.886 15.4194 102.51 15.0021 102.024 14.7029C101.554 14.3879 100.998 14.2304 100.355 14.2304C99.713 14.2304 99.149 14.3879 98.6632 14.7029C98.1775 15.0021 97.7937 15.4194 97.5117 15.9548C97.2453 16.4745 97.1121 17.0808 97.1121 17.7737C97.1121 18.4666 97.2453 19.0808 97.5117 19.6162C97.7937 20.1517 98.1775 20.569 98.6632 20.8682C99.149 21.1674 99.713 21.317 100.355 21.317Z" fill="url(#paint3_linear_1_1868)"/>
<path d="M107.885 24.2225V6.3407H111.41V24.2225H107.885Z" fill="url(#paint4_linear_1_1868)"/>
<path d="M114.131 24.2225V14.3958H111.968V11.3249H114.131V11.136C114.131 10.1123 114.326 9.2462 114.718 8.53754C115.125 7.82888 115.705 7.28558 116.457 6.90762C117.209 6.52967 118.118 6.3407 119.183 6.3407C119.387 6.3407 119.606 6.35645 119.841 6.38794C120.077 6.40369 120.272 6.42731 120.429 6.45881V9.48242C120.272 9.45092 120.131 9.43517 120.006 9.43517C119.896 9.41943 119.779 9.41155 119.653 9.41155C118.995 9.41155 118.494 9.56116 118.149 9.86037C117.82 10.1438 117.656 10.569 117.656 11.136V11.3249H120.406V14.3958H117.656V24.2225H114.131Z" fill="url(#paint5_linear_1_1868)"/>
<path d="M35.1309 24.1878V6.58948H38.7736V24.1878H35.1309Z" fill="white"/>
<path d="M40.2098 24.1878V11.2902H43.5001V13.8414L43.3121 13.2745C43.6097 12.5028 44.0876 11.9359 44.7457 11.5737C45.4194 11.1958 46.2028 11.0068 47.0958 11.0068C48.0673 11.0068 48.9133 11.2115 49.634 11.621C50.3704 12.0304 50.9423 12.6052 51.3497 13.3454C51.757 14.0698 51.9607 14.9202 51.9607 15.8965V24.1878H48.4354V16.6524C48.4354 16.1485 48.3336 15.7154 48.1299 15.3532C47.9419 14.991 47.6677 14.7076 47.3074 14.5028C46.9627 14.2981 46.5553 14.1957 46.0853 14.1957C45.6309 14.1957 45.2235 14.2981 44.8632 14.5028C44.5028 14.7076 44.2208 14.991 44.0171 15.3532C43.8291 15.7154 43.7351 16.1485 43.7351 16.6524V24.1878H40.2098Z" fill="white"/>
<path d="M59.0496 24.3296C57.4985 24.3296 56.2921 23.9122 55.4304 23.0776C54.5843 22.2272 54.1613 21.0461 54.1613 19.5343V14.3611H51.9991V11.2902H52.1166C52.7747 11.2902 53.276 11.1249 53.6207 10.7942C53.9811 10.4635 54.1613 9.96742 54.1613 9.306V8.36112H57.6865V11.2902H60.6948V14.3611H57.6865V19.2981C57.6865 19.739 57.7649 20.1091 57.9215 20.4083C58.0782 20.6918 58.3211 20.9044 58.6501 21.0461C58.9791 21.1878 59.3865 21.2587 59.8722 21.2587C59.9819 21.2587 60.1072 21.2508 60.2482 21.2351C60.3892 21.2193 60.5381 21.2036 60.6948 21.1878V24.1878C60.4597 24.2193 60.1934 24.2508 59.8957 24.2823C59.598 24.3138 59.316 24.3296 59.0496 24.3296Z" fill="white"/>
<path d="M67.5314 24.4713C66.1683 24.4713 64.9854 24.1721 63.9826 23.5737C62.9799 22.9595 62.2043 22.1406 61.6559 21.117C61.1076 20.0934 60.8334 18.9595 60.8334 17.7154C60.8334 16.4241 61.1154 15.2745 61.6794 14.2666C62.2592 13.2587 63.0347 12.4635 64.0061 11.8808C64.9775 11.2981 66.0743 11.0068 67.2964 11.0068C68.3148 11.0068 69.2157 11.1721 69.9991 11.5028C70.7825 11.8178 71.4405 12.2666 71.9732 12.8493C72.5216 13.432 72.9368 14.1091 73.2188 14.8808C73.5009 15.6367 73.6419 16.4635 73.6419 17.3611C73.6419 17.6131 73.6262 17.865 73.5949 18.117C73.5792 18.3532 73.54 18.5579 73.4774 18.7312H63.8651V16.1327H71.4797L69.8111 17.3611C69.9678 16.6839 69.9599 16.0855 69.7876 15.5658C69.6152 15.0304 69.3097 14.6131 68.871 14.3139C68.448 13.9989 67.9231 13.8414 67.2964 13.8414C66.6853 13.8414 66.1605 13.991 65.7218 14.2902C65.2831 14.5894 64.954 15.0304 64.7347 15.6131C64.5153 16.1957 64.4292 16.9044 64.4762 17.739C64.4135 18.4634 64.4997 19.1012 64.7347 19.6524C64.9697 20.2036 65.3301 20.6367 65.8158 20.9516C66.3015 21.2508 66.889 21.4004 67.5784 21.4004C68.2051 21.4004 68.7378 21.2745 69.1765 21.0225C69.6309 20.7705 69.9834 20.4241 70.2341 19.9831L73.0543 21.3296C72.8036 21.9595 72.4041 22.5107 71.8557 22.9831C71.323 23.4556 70.6885 23.8256 69.9521 24.0933C69.2157 24.3453 68.4088 24.4713 67.5314 24.4713Z" fill="white"/>
<defs>
<linearGradient id="paint0_linear_1_1868" x1="15.7091" y1="0" x2="15.7091" y2="30.7221" gradientUnits="userSpaceOnUse">
<stop stop-color="#00D1D1"/>
<stop offset="1" stop-color="#00D179"/>
</linearGradient>
<linearGradient id="paint1_linear_1_1868" x1="15.7091" y1="0" x2="15.7091" y2="30.7221" gradientUnits="userSpaceOnUse">
<stop stop-color="#00D1D1"/>
<stop offset="1" stop-color="#00D179"/>
</linearGradient>
<linearGradient id="paint2_linear_1_1868" x1="97.4749" y1="6.3407" x2="97.4749" y2="24.506" gradientUnits="userSpaceOnUse">
<stop stop-color="#00D1D1"/>
<stop offset="1" stop-color="#00D179"/>
</linearGradient>
<linearGradient id="paint3_linear_1_1868" x1="97.4749" y1="6.3407" x2="97.4749" y2="24.506" gradientUnits="userSpaceOnUse">
<stop stop-color="#00D1D1"/>
<stop offset="1" stop-color="#00D179"/>
</linearGradient>
<linearGradient id="paint4_linear_1_1868" x1="97.4749" y1="6.3407" x2="97.4749" y2="24.506" gradientUnits="userSpaceOnUse">
<stop stop-color="#00D1D1"/>
<stop offset="1" stop-color="#00D179"/>
</linearGradient>
<linearGradient id="paint5_linear_1_1868" x1="97.4749" y1="6.3407" x2="97.4749" y2="24.506" gradientUnits="userSpaceOnUse">
<stop stop-color="#00D1D1"/>
<stop offset="1" stop-color="#00D179"/>
</linearGradient>
</defs>
</svg>
